<?xml version="1.0" standalone="no"?>
<!DOCTYPE svg PUBLIC "-//W3C//DTD SVG 20010904//EN"
 "http://www.w3.org/TR/2001/REC-SVG-20010904/DTD/svg10.dtd">
<svg version="1.0" xmlns="http://www.w3.org/2000/svg"
 width="460.000000pt" height="460.000000pt" viewBox="0 0 460.000000 460.000000"
 preserveAspectRatio="xMidYMid meet">
<metadata>
Created by potrace 1.16, written by Peter Selinger 2001-2019
</metadata>
<g transform="translate(0.000000,460.000000) scale(0.100000,-0.100000)"
fill="#000000" stroke="none">
<path d="M2070 4143 c-14 -2 -32 -7 -40 -10 -8 -3 -18 -5 -22 -5 -5 1 -8 -6
-9 -15 0 -10 -3 -13 -5 -7 -6 14 -64 -11 -64 -27 0 -5 -13 -9 -29 -9 -21 0
-39 -12 -71 -46 l-43 -46 6 -66 c5 -45 13 -72 26 -86 14 -15 18 -29 14 -45 -5
-18 -3 -22 6 -16 10 6 11 3 3 -12 -6 -11 -9 -29 -6 -40 3 -11 -3 -38 -14 -60
-11 -21 -24 -57 -28 -78 -7 -40 -29 -83 -49 -97 -5 -4 -29 -8 -51 -8 -27 0
-51 -8 -69 -22 -27 -21 -27 -23 -21 -95 6 -80 23 -123 58 -147 44 -31 63 -21
103 50 44 77 63 81 83 14 8 -25 22 -65 32 -90 10 -25 15 -48 11 -52 -8 -9
-125 17 -155 33 -17 10 -18 7 -13 -43 3 -29 14 -107 26 -173 11 -66 21 -139
21 -163 0 -56 34 -91 118 -122 l61 -22 -6 -62 c-3 -33 -11 -66 -17 -73 -6 -6
-78 -28 -159 -48 -155 -38 -337 -101 -392 -135 -78 -48 -256 -317 -285 -430
-23 -93 -54 -159 -75 -164 -12 -3 -31 -25 -44 -51 -12 -25 -34 -58 -47 -74
-14 -16 -33 -54 -43 -83 -10 -29 -32 -74 -50 -99 -17 -26 -31 -53 -31 -61 0
-8 -3 -18 -7 -22 -23 -23 -31 -87 -28 -254 3 -148 7 -190 24 -248 45 -144 109
-193 264 -199 45 -1 102 -6 127 -10 l45 -7 -3 -166 c-2 -92 -8 -179 -13 -193
-13 -34 -27 -175 -21 -221 l4 -38 895 0 c849 0 895 1 887 18 -4 9 -9 80 -12
157 -3 129 -2 146 22 219 14 43 26 93 26 110 0 23 9 41 31 62 46 44 89 114 89
146 0 15 5 28 10 28 6 0 10 7 10 15 0 8 16 25 35 37 20 13 41 39 50 61 8 20
19 37 25 37 14 0 42 59 34 71 -13 22 19 124 52 164 18 22 51 79 74 127 48 100
48 109 -1 285 -28 100 -29 104 -22 291 8 244 4 258 -117 380 -69 71 -103 96
-180 136 -52 27 -125 66 -162 86 -37 21 -77 41 -90 45 -41 13 -90 57 -109 99
-16 37 -19 39 -26 20 -10 -26 -68 -76 -77 -67 -3 3 -6 -1 -6 -9 0 -15 -39 -33
-49 -23 -2 3 17 25 44 49 34 32 46 50 43 64 -4 14 -1 19 11 18 13 -1 15 7 13
39 -4 48 -27 90 -59 104 -21 10 -23 8 -23 -18 0 -20 -10 -37 -31 -56 -37 -31
-122 -75 -144 -75 -8 0 -15 -4 -15 -10 0 -5 -12 -9 -27 -9 -24 2 -25 2 -5 6
12 2 20 9 17 14 -3 5 -1 19 6 31 8 15 8 23 1 26 -6 2 -5 14 5 33 8 16 12 36 9
44 -3 9 0 15 9 15 7 0 22 11 33 25 11 14 24 25 29 25 14 0 50 42 58 68 8 28
25 29 25 1 0 -15 5 -19 15 -15 11 4 15 -2 15 -27 l1 -32 19 40 c11 22 19 48
20 58 0 25 17 56 120 219 96 151 122 210 145 320 17 80 19 119 6 162 -5 17
-16 54 -24 81 -8 28 -20 76 -27 107 -9 40 -23 66 -46 91 -19 19 -35 44 -37 56
-6 36 -77 101 -112 101 -16 1 -55 10 -85 21 -93 35 -154 51 -183 50 -15 -1
-38 5 -50 14 -26 18 -51 19 -80 3 -30 -16 -66 -21 -80 -10 -15 12 -93 21 -127
15z m102 -382 c15 8 18 6 19 -13 0 -22 1 -22 9 -3 5 11 9 14 9 7 1 -7 5 -11
10 -8 10 7 20 -15 23 -47 0 -12 4 -2 7 22 6 42 31 71 31 36 0 -11 5 -15 14
-12 8 3 17 -1 20 -9 11 -27 6 -54 -9 -60 -11 -5 -13 -16 -8 -48 3 -22 9 -43
13 -46 3 -3 9 -13 13 -22 7 -21 43 -24 51 -5 2 6 4 -21 3 -60 l-2 -73 -40 4
c-122 13 -172 20 -195 29 -29 10 -106 26 -155 32 -27 4 -54 10 -60 14 -5 4
-34 7 -62 6 l-53 -2 0 39 c0 31 3 39 14 35 8 -3 20 1 26 9 7 8 23 14 35 14 43
0 87 12 74 21 -22 13 -19 39 5 39 11 0 30 11 40 25 10 14 23 25 27 25 5 0 30
14 56 30 30 19 50 27 57 20 6 -6 16 -5 28 1z m501 -424 c28 -23 48 -87 29 -87
-6 0 -9 -7 -6 -15 4 -8 1 -15 -6 -15 -7 0 -9 -8 -5 -22 5 -18 4 -20 -4 -8 -6
9 -8 35 -5 62 8 60 -5 78 -58 78 -28 0 -46 -7 -64 -25 -14 -14 -28 -25 -33
-25 -11 0 -7 -31 7 -57 16 -29 15 -73 0 -73 -18 -1 22 -30 41 -30 30 0 61 42
61 82 0 21 5 38 11 38 8 0 9 -16 5 -52 -6 -43 -5 -51 5 -40 18 17 29 15 22 -5
-10 -27 -45 -73 -56 -73 -5 0 -20 -9 -34 -20 -26 -20 -68 -26 -89 -12 -7 4
-14 18 -17 32 -4 22 -4 21 -6 -7 -1 -43 -16 -49 -31 -13 -35 84 51 290 121
290 15 0 31 5 34 10 11 17 51 11 78 -13z m-276 -22 c12 -13 13 -20 1 -45 -7
-17 -16 -30 -20 -30 -5 0 -8 -6 -8 -14 0 -8 -7 -21 -15 -30 -9 -9 -11 -17 -5
-21 14 -9 12 -19 -9 -43 -21 -25 -36 -29 -27 -7 3 8 1 15 -4 15 -6 0 -10 -12
-10 -26 0 -14 -4 -23 -8 -20 -5 3 -21 -8 -36 -25 -15 -16 -32 -29 -38 -29 -7
0 -7 -4 0 -13 15 -17 0 -39 -21 -31 -13 4 -14 10 -7 24 16 30 12 35 -9 11 -17
-20 -19 -20 -25 -4 -6 14 -9 15 -15 4 -6 -10 -13 -10 -29 -2 -29 16 -102 106
-94 117 14 20 132 105 183 131 42 22 126 47 172 52 5 1 15 -6 24 -14z m-184
-952 c-13 -49 -34 -110 -47 -138 -12 -27 -30 -72 -39 -100 -31 -92 -76 -240
-83 -268 -6 -28 -29 -46 -41 -33 -4 3 8 35 25 70 19 38 30 72 26 83 -5 15 -4
16 6 3 10 -12 11 -11 6 9 -6 27 35 160 83 268 16 37 38 96 48 130 10 35 23 63
29 63 8 0 3 -30 -13 -87z m-971 -742 c41 -28 43 -28 50 -10 31 81 207 -116
224 -249 3 -31 17 -84 29 -118 l23 -61 -43 1 c-30 1 -50 -5 -65 -19 l-23 -20
12 23 c6 12 19 22 27 22 8 0 12 5 9 10 -3 6 -50 10 -104 10 -122 0 -162 7
-168 31 -3 10 -13 21 -22 24 -16 5 -67 80 -92 137 -9 22 -9 31 1 43 21 26 37
17 86 -47 84 -112 85 -103 2 15 -26 37 -48 70 -48 73 0 3 -9 17 -20 31 -11 14
-20 34 -20 44 0 10 9 23 20 29 11 6 20 16 20 23 0 18 21 37 42 37 9 0 37 -13
60 -29z m1037 -434 c10 2 42 -2 70 -11 29 -8 56 -15 59 -14 4 1 28 -2 55 -6
47 -8 47 -8 47 -47 0 -22 -7 -50 -15 -63 -9 -13 -19 -43 -23 -66 -4 -24 -13
-45 -21 -48 -9 -3 -11 2 -6 17 6 20 5 20 -19 -4 -20 -20 -35 -25 -74 -25 -27
0 -63 5 -79 11 -27 9 -31 16 -37 62 -3 29 -6 70 -6 92 0 44 20 127 27 109 2
-7 12 -10 22 -7z m-71 -132 l-13 -99 -42 -4 c-33 -3 -45 1 -63 20 l-21 23 6
-25 c6 -25 4 -26 -40 -26 -33 0 -44 4 -41 13 3 7 1 13 -4 13 -6 0 -10 -6 -10
-12 0 -17 -62 -21 -72 -5 -5 8 -8 4 -8 -11 0 -32 -20 -17 -21 16 0 23 -2 24
-8 7 -8 -19 -8 -19 -19 0 -10 17 -11 17 -12 3 0 -9 5 -20 10 -23 6 -3 10 -12
10 -18 0 -7 -5 -4 -11 6 -12 21 -29 22 -29 3 0 -26 -20 -28 -56 -7 -31 19 -34
19 -25 3 9 -16 6 -18 -20 -14 -16 2 -29 9 -29 14 0 6 -11 7 -26 4 -19 -5 -30
-2 -40 11 -10 13 -16 15 -22 6 -9 -14 -82 -20 -101 -9 -8 5 -17 3 -22 -5 -8
-12 -12 -11 -23 3 -7 10 -16 14 -21 10 -4 -4 -4 3 -1 16 10 30 0 28 -18 -5
l-15 -28 -1 27 c0 15 4 37 9 50 5 13 14 42 20 65 18 65 76 111 114 91 10 -5
14 -14 11 -20 -4 -7 -3 -8 5 -4 6 4 9 11 7 15 -3 4 23 4 57 -1 34 -5 78 -6 97
-3 22 3 51 -1 74 -10 36 -15 64 -12 38 4 -7 4 28 13 78 19 50 7 95 10 101 7
14 -9 108 -12 103 -4 -2 5 19 9 48 11 64 4 63 7 46 -127z"/>
</g>
</svg>
